#!OML:ASF H:\BabyWalks\Project 1\Capture day 1\Session 1\baby.ASF
:FULLY-SPECIFIED
:DEGREES
796
root 36.1184 17.4422 0.769821 181.401 81.3501 181.286
lowerback 18.3119 -0.631251 1.34624
upperback 8.22492 0.05902 1.679
thorax -1.44553 0.287069 0.990482
lowerneck -0.721578 -2.41625 4.52106
upperneck 1.99406 -3.18636 -4.76288
head 0.589478 -1.59425 -2.29342
rclavicle 1.43125e-014 3.97569e-015
rhumerus -41.1001 2.65653 -78.6707
rradius 45.2041
rwrist -0.913668
rhand -11.0298 -16.5579
rfingers 7.12502
rthumb 14.9918 -45.9953
lclavicle 1.43125e-014 3.97569e-015
lhumerus -43.2491 -5.26268 80.5383
lradius 63.0019
lwrist 6.20309
lhand -0.857797 10.8768
lfingers 7.12502
lthumb 24.7685 39.293
rfemur -18.6393 -2.18621 20.5974
rtibia 34.3898
rfoot -13.8636 -11.371
rtoes 1.46852
lfemur 14.53 -10.0741 -14.514
ltibia 3.23995
lfoot -18.8754 -0.392569
ltoes -11.3694
797
root 36.1205 17.4417 0.76936 181.645 81.4082 181.499
lowerback 18.3307 -0.628731 1.29684
upperback 8.23 0.053896 1.65917
thorax -1.44966 0.283651 0.998543
lowerneck -0.704523 -2.41192 4.49983
upperneck 1.94955 -3.18129 -4.74768
head 0.573338 -1.59168 -2.28366
rclavicle -5.76476e-015 2.14687e-014
rhumerus -41.1082 2.6764 -78.7003
rradius 45.2931
rwrist -1.00456
rhand -11.0671 -16.5725
rfingers 7.12502
rthumb 14.9559 -46.0125
lclavicle -5.76476e-015 2.14687e-014
lhumerus -43.2963 -5.22787 80.5185
lradius 62.6678
lwrist 6.09932
lhand -0.758432 10.9313
lfingers 7.12502
lthumb 24.8637 39.3345
rfemur -18.6713 -2.17538 20.6391
rtibia 34.3838
rfoot -13.8578 -11.3315
rtoes 1.47046
lfemur 14.528 -10.0136 -14.4745
ltibia 3.22776
lfoot -18.8999 -0.395707
ltoes -11.3651
798
root 36.1223 17.4414 0.76847 181.941 81.4699 181.764
lowerback 18.3445 -0.625948 1.26021
upperback 8.23509 0.050875 1.63723
thorax -1.4513 0.281575 0.99675
lowerneck -0.688617 -2.40742 4.47658
upperneck 1.90865 -3.1761 -4.72325
head 0.558707 -1.58901 -2.27058
rclavicle 1.0138e-014 -3.57812e-015
rhumerus -41.1184 2.69894 -78.7382
rradius 45.3815
rwrist -1.09604
rhand -11.1062 -16.5855
rfingers 7.12502
rthumb 14.9182 -46.0283
lclavicle 1.0138e-014 -3.57812e-015
lhumerus -43.3393 -5.19421 80.4912
lradius 62.3207
lwrist 5.98623
lhand -0.63485 10.9948
lfingers 7.12502
lthumb 24.9822 39.3816
rfemur -18.7048 -2.16589 20.687
rtibia 34.3716
rfoot -13.8471 -11.2862
rtoes 1.47212
lfemur 14.4995 -9.94832 -14.4284
ltibia 3.26458
lfoot -18.9499 -0.395757
ltoes -11.3545
799
root 36.1238 17.4411 0.767183 182.29 81.5333 182.077
lowerback 18.3547 -0.622572 1.23703
upperback 8.2375 0.0504174 1.61392
thorax -1.45395 0.28098 0.985391
lowerneck -0.677721 -2.40207 4.45443
upperneck 1.87847 -3.16975 -4.69473
head 0.548412 -1.58577 -2.25658
rclavicle -4.03533e-014 -1.07344e-014
rhumerus -41.1336 2.7271 -78.7838
rradius 45.4672
rwrist -1.18968
rhand -11.1384 -16.5984
rfingers 7.12502
rthumb 14.8872 -46.0435
lclavicle -4.03533e-014 -1.07344e-014
lhumerus -43.38 -5.16446 80.4587
lradius 61.9626
lwrist 5.86846
lhand -0.487422 11.0692
lfingers 7.12502
lthumb 25.1234 39.4362
rfemur -18.7409 -2.15886 20.7408
rtibia 34.3519
rfoot -13.8305 -11.2355
rtoes 1.47409
lfemur 14.4318 -9.87982 -14.3761
ltibia 3.37172
lfoot -19.0346 -0.389158
ltoes -11.3401
800
root 36.125 17.4409 0.76551 182.704 81.5981 182.452
lowerback 18.3596 -0.619703 1.22773
upperback 8.23902 0.0513217 1.59139
thorax -1.45487 0.281313 0.966724
lowerneck -0.674405 -2.39389 4.43787
upperneck 1.85623 -3.15967 -4.67019
head 0.541957 -1.58073 -2.24515
rclavicle 5.1684e-015 1.19271e-014
rhumerus -41.1485 2.76368 -78.8346
rradius 45.5476
rwrist -1.28251
rhand -11.1632 -16.6127
rfingers 7.12502
rthumb 14.8633 -46.0596
lclavicle 5.1684e-015 1.19271e-014
lhumerus -43.4165 -5.13097 80.4216
lradius 61.5946
lwrist 5.74468
lhand -0.313469 11.1556
lfingers 7.12502
lthumb 25.2901 39.4992
rfemur -18.7784 -2.15248 20.8026
rtibia 34.3235
rfoot -13.8078 -11.1814
rtoes 1.47897
lfemur 14.3217 -9.80818 -14.316
ltibia 3.5562
lfoot -19.1572 -0.375237
ltoes -11.3223
801
root 36.1257 17.4408 0.763464 183.195 81.6706 182.9
lowerback 18.363 -0.613591 1.23267
upperback 8.23818 0.0585497 1.56952
thorax -1.45759 0.284995 0.93947
lowerneck -0.679736 -2.38372 4.42542
upperneck 1.84484 -3.14698 -4.64733
head 0.540434 -1.57446 -2.23531
rclavicle -2.88238e-014 2.82274e-014
rhumerus -41.1644 2.80791 -78.8897
rradius 45.6201
rwrist -1.37185
rhand -11.1777 -16.6271
rfingers 7.12502
rthumb 14.8493 -46.075
lclavicle -2.88238e-014 2.82274e-014
lhumerus -43.4496 -5.09582 80.3802
lradius 61.222
lwrist 5.619
lhand -0.117016 11.2593
lfingers 7.12502
lthumb 25.4783 39.5761
rfemur -18.8204 -2.14051 20.8732
rtibia 34.2867
rfoot -13.7773 -11.1237
rtoes 1.48708
lfemur 14.1724 -9.72667 -14.2474
ltibia 3.81132
lfoot -19.3128 -0.354643
ltoes -11.304
802
root 36.1258 17.4408 0.761114 183.731 81.7431 183.391
lowerback 18.3674 -0.606186 1.24632
upperback 8.23617 0.0689426 1.54918
thorax -1.4621 0.290401 0.908295
lowerneck -0.692159 -2.36915 4.42373
upperneck 1.84177 -3.12841 -4.63424
head 0.542726 -1.56531 -2.23086
rclavicle -1.31198e-014 1.03368e-014
rhumerus -41.1797 2.86108 -78.9479
rradius 45.6829
rwrist -1.45575
rhand -11.1861 -16.6405
rfingers 7.12502
rthumb 14.8412 -46.089
lclavicle -1.31198e-014 1.03368e-014
lhumerus -43.4784 -5.05748 80.3362
lradius 60.8468
lwrist 5.49302
lhand 0.100763 11.3756
lfingers 7.12502
lthumb 25.6869 39.6625
rfemur -18.8631 -2.12851 20.948
rtibia 34.2427
rfoot -13.7404 -11.0655
rtoes 1.49183
lfemur 13.9944 -9.64347 -14.175
ltibia 4.11869
lfoot -19.4927 -0.329763
ltoes -11.2821
803
root 36.1256 17.4409 0.758416 184.302 81.8143 183.919
lowerback 18.3714 -0.597515 1.2673
upperback 8.2331 0.0822238 1.53112
thorax -1.46754 0.297349 0.874814
lowerneck -0.712221 -2.35191 4.42954
upperneck 1.8492 -3.10619 -4.63033
head 0.549561 -1.55441 -2.23104
rclavicle 1.17283e-014 -4.37326e-015
rhumerus -41.1951 2.92467 -79.008
rradius 45.735
rwrist -1.53196
rhand -11.1838 -16.653
rfingers 7.12502
rthumb 14.8435 -46.1013
lclavicle 1.17283e-014 -4.37326e-015
lhumerus -43.5041 -5.01497 80.2913
lradius 60.4679
lwrist 5.36835
lhand 0.3294 11.5046
lfingers 7.12502
lthumb 25.9058 39.7596
rfemur -18.9052 -2.11632 21.0254
rtibia 34.1936
rfoot -13.7 -11.0074
rtoes 1.49956
lfemur 13.8045 -9.55998 -14.1003
ltibia 4.4463
lfoot -19.6814 -0.303544
ltoes -11.2592
804
root 36.1249 17.441 0.755436 184.872 81.8826 184.446
lowerback 18.3755 -0.587429 1.28785
upperback 8.23206 0.0975732 1.51526
thorax -1.47091 0.305383 0.843512
lowerneck -0.739973 -2.33168 4.44447
upperneck 1.86142 -3.08008 -4.63647
head 0.559148 -1.54165 -2.23637
rclavicle -7.35503e-015 7.55382e-015
rhumerus -41.2058 2.99641 -79.0675
rradius 45.7759
rwrist -1.59501
rhand -11.1708 -16.6612
rfingers 7.12502
rthumb 14.8559 -46.1086
lclavicle -7.35503e-015 7.55382e-015
lhumerus -43.5233 -4.96376 80.2456
lradius 60.0872
lwrist 5.24179
lhand 0.566475 11.6376
lfingers 7.12502
lthumb 26.1328 39.8593
rfemur -18.9448 -2.10402 21.0998
rtibia 34.1414
rfoot -13.6577 -10.9515
rtoes 1.50766
lfemur 13.6171 -9.47863 -14.0289
ltibia 4.7687
lfoot -19.8658 -0.278393
ltoes -11.2374
